<svg xmlns="http://www.w3.org/2000/svg" viewBox="0 0 192 192" width="192" height="192">
  <defs>
    <linearGradient id="bg2" x1="0" y1="0" x2="1" y2="1">
      <stop offset="0%" stop-color="#4A148C"/>
      <stop offset="50%" stop-color="#6A1B9A"/>
      <stop offset="100%" stop-color="#283593"/>
    </linearGradient>
  </defs>
  <rect width="192" height="192" rx="36" fill="url(#bg2)"/>
  <!-- TV -->
  <rect x="22" y="26" width="60" height="44" rx="4" fill="white" opacity="0.95"/>
  <rect x="28" y="32" width="48" height="32" rx="2" fill="#4A148C" opacity="0.2"/>
  <rect x="34" y="66" width="36" height="6" rx="2" fill="white" opacity="0.5"/>
  <!-- AC -->
  <rect x="110" y="28" width="60" height="40" rx="6" fill="white" opacity="0.95"/>
  <rect x="120" y="34" width="40" height="7" rx="2" fill="#4A148C" opacity="0.2"/>
  <rect x="120" y="44" width="40" height="7" rx="2" fill="#4A148C" opacity="0.15"/>
  <rect x="120" y="54" width="40" height="7" rx="2" fill="#4A148C" opacity="0.1"/>
  <!-- 信号连接 -->
  <path d="M82 56 Q96 48 110 56" stroke="#FFD54F" stroke-width="1.5" fill="none" opacity="0.5"/>
  <!-- 遥控圆盘 -->
  <circle cx="96" cy="120" r="42" fill="white" opacity="0.95"/>
  <circle cx="96" cy="120" r="34" fill="none" stroke="#EDE7F6" stroke-width="1"/>
  <line x1="96" y1="90" x2="96" y2="150" stroke="#EDE7F6" stroke-width="1.5"/>
  <line x1="66" y1="120" x2="126" y2="120" stroke="#EDE7F6" stroke-width="1.5"/>
  <!-- 电源 -->
  <circle cx="96" cy="92" r="10" fill="#E53935" opacity="0.85"/>
  <text x="96" y="95" font-family="sans-serif" font-size="10" fill="white" text-anchor="middle">⏻</text>
  <text x="78" y="118" font-family="sans-serif" font-size="8" fill="#4A148C" text-anchor="middle" font-weight="bold">TV</text>
  <text x="114" y="118" font-family="sans-serif" font-size="8" fill="#4A148C" text-anchor="middle" font-weight="bold">AC</text>
  <circle cx="96" cy="120" r="7" fill="#7E57C2"/>
  <ellipse cx="96" cy="168" rx="3" ry="1.5" fill="#FFD54F" opacity="0.6"/>
  <ellipse cx="96" cy="168" rx="8" ry="3" fill="#FFD54F" opacity="0.25"/>
  <ellipse cx="96" cy="168" rx="15" ry="5" fill="#FFD54F" opacity="0.1"/>
</svg>
