<svg xmlns="http://www.w3.org/2000/svg" viewBox="0 0 192 192" width="192" height="192">
  <defs>
    <linearGradient id="bg5" x1="0" y1="0" x2="1" y2="1">
      <stop offset="0%" stop-color="#1A237E"/>
      <stop offset="100%" stop-color="#311B92"/>
    </linearGradient>
  </defs>
  <rect width="192" height="192" rx="36" fill="url(#bg5)"/>
  
  <!-- 抽象遥控器: OLED风格极简 -->
  <!-- 遥控器主体 -->
  <rect x="52" y="20" width="88" height="152" rx="16" fill="white" opacity="0.95"/>
  
  <!-- 顶部红外发射区 -->
  <rect x="76" y="22" width="40" height="6" rx="3" fill="#E53935"/>
  <ellipse cx="96" cy="24" rx="20" ry="4" fill="#EF5350" opacity="0.4"/>
  
  <!-- 状态屏 -->
  <rect x="64" y="36" width="64" height="22" rx="4" fill="#1A237E"/>
  <text x="96" y="51" font-family="sans-serif" font-size="11" fill="#64FFDA" text-anchor="middle" font-weight="bold">遥控</text>
  
  <!-- 电源按钮 -->
  <rect x="76" y="68" width="40" height="24" rx="6" fill="#E53935"/>
  <text x="96" y="84" font-family="sans-serif" font-size="14" fill="white" text-anchor="middle">⏻</text>
  
  <!-- 中间大圆盘(模拟方向键+OK) -->
  <circle cx="96" cy="117" r="28" fill="#F5F5F7" stroke="#E0E0E0" stroke-width="0.5"/>
  <line x1="96" y1="92" x2="96" y2="142" stroke="#BDBDBD" stroke-width="1.5"/>
  <line x1="70" y1="117" x2="122" y2="117" stroke="#BDBDBD" stroke-width="1.5"/>
  <circle cx="96" cy="117" r="8" fill="#1A237E"/>
  
  <!-- 底部: 左侧TV指示, 右侧AC指示 -->
  <rect x="70" y="156" width="18" height="10" rx="3" fill="#E8EAF6"/>
  <text x="79" y="164" font-family="sans-serif" font-size="6" fill="#1A237E" text-anchor="middle">TV</text>
  
  <rect x="104" y="156" width="18" height="10" rx="3" fill="#E8EAF6"/>
  <text x="113" y="164" font-family="sans-serif" font-size="6" fill="#1A237E" text-anchor="middle">AC</text>
  
  <ellipse cx="96" cy="176" rx="3" ry="1" fill="#64FFDA" opacity="0.6"/>
  <ellipse cx="96" cy="176" rx="8" ry="2" fill="#64FFDA" opacity="0.25"/>
  <ellipse cx="96" cy="176" rx="16" ry="4" fill="#64FFDA" opacity="0.08"/>
</svg>
