<svg xmlns="http://www.w3.org/2000/svg" viewBox="0 0 192 192" width="192" height="192">
  <defs>
    <linearGradient id="g5d" x1="0" y1="0" x2="0" y2="1">
      <stop offset="0%" stop-color="#1565C0"/>
      <stop offset="100%" stop-color="#0D47A1"/>
    </linearGradient>
  </defs>
  <rect width="192" height="192" rx="36" fill="url(#g5d)"/>
  
  <!-- 遥控器主体 -->
  <rect x="56" y="24" width="80" height="144" rx="14" fill="white"/>
  
  <!-- 红外发射头 -->
  <rect x="80" y="26" width="32" height="5" rx="2.5" fill="#E53935"/>
  <ellipse cx="96" cy="26" rx="16" ry="3.5" fill="#EF5350" opacity="0.3"/>
  
  <!-- 屏幕 -->
  <rect x="68" y="38" width="56" height="20" rx="3" fill="#0D47A1"/>
  <text x="96" y="52" font-family="sans-serif" font-size="10" fill="white" text-anchor="middle" font-weight="bold">IR</text>
  
  <!-- 电源 -->
  <circle cx="96" cy="76" r="12" fill="#E53935"/>
  <text x="96" y="80" font-family="sans-serif" font-size="13" fill="white" text-anchor="middle">⏻</text>
  
  <!-- 方向键 -->
  <circle cx="96" cy="112" r="24" fill="#F5F5F7" stroke="#E0E0E0" stroke-width="0.5"/>
  <line x1="96" y1="90" x2="96" y2="134" stroke="#BDBDBD" stroke-width="1.5"/>
  <line x1="74" y1="112" x2="118" y2="112" stroke="#BDBDBD" stroke-width="1.5"/>
  <circle cx="96" cy="112" r="6" fill="#1565C0"/>
  
  <!-- 底部按钮行: 三个小点 -->
  <circle cx="82" cy="142" r="3.5" fill="#E0E0E0"/>
  <circle cx="96" cy="142" r="3.5" fill="#E0E0E0"/>
  <circle cx="110" cy="142" r="3.5" fill="#E0E0E0"/>
  
  <!-- 底部信号波纹 -->
  <ellipse cx="96" cy="164" rx="3" ry="1.5" fill="#90CAF9" opacity="0.6"/>
  <ellipse cx="96" cy="164" rx="8" ry="3" fill="#90CAF9" opacity="0.25"/>
  <ellipse cx="96" cy="164" rx="16" ry="5" fill="#90CAF9" opacity="0.08"/>
</svg>
